<svg width="69" height="69" viewBox="0 0 69 69" fill="none" xmlns="http://www.w3.org/2000/svg">
<g clip-path="url(#clip0)">
<path d="M38.5715 10.7088C37.4377 10.5031 36.242 10.6797 35.145 11.2002L31.7603 12.7522L28.2167 12.5778L28.1604 12.5676L28.094 12.6136C26.9122 12.664 25.769 13.0483 24.7967 13.7219C23.8245 14.3955 23.0631 15.3309 22.6007 16.4196L22.5361 16.466L22.5259 16.5222L21.4345 19.9557L18.8436 22.2964L18.7754 22.3421L18.7652 22.3983C17.1294 24.1946 16.5985 26.8004 17.63 28.9851L19.2383 32.38L19.24 35.6033L11.7858 43.4421L9.41122 45.882L18.0846 47.4557L19.2973 52.7108L20.0358 56.0659L22.4207 53.5698L29.7095 45.9914C31.1334 46.9019 32.859 47.2749 34.4734 46.8558L38.6354 56.5117L39.9913 59.6866L41.8615 56.8047L44.843 52.3107L53.5164 53.8843L52.1503 50.7657L48.0443 41.1218L49.1149 37.8026L51.7572 35.1789L51.8254 35.1332L51.8356 35.077C53.4714 33.2807 53.992 30.7311 52.9605 28.5464L51.4088 25.1599L51.3457 21.635L51.4019 21.6452C51.4025 21.6003 51.3661 21.5637 51.3664 21.5207C51.4704 19.0886 49.9423 16.8213 47.6079 16.0961L47.5499 16.0855L44.2306 15.0148L41.6069 12.3726C40.7934 11.515 39.7321 10.9333 38.5715 10.7088V10.7088ZM37.903 14.3933C38.3202 14.469 38.709 14.6707 38.9749 14.9401L41.7843 17.8502L42.1302 18.2053L42.5732 18.3456L46.4398 19.6318L46.4943 19.6417C47.2942 19.8805 47.7571 20.551 47.7015 21.3842L47.6811 21.4967L47.6891 25.6562L47.6714 26.0634L47.8947 26.4543L49.6324 30.1069C49.9567 30.7878 49.8276 31.8194 49.1236 32.5911L45.9248 35.7004L45.7845 36.1434L44.4983 40.01L44.4884 40.0644C44.4068 40.3424 44.2604 40.5972 44.0612 40.8076L43.9364 40.845L43.9265 40.8994C43.5982 41.1743 43.1744 41.3082 42.7477 41.272L42.6334 41.2513L38.3614 41.2388L37.898 41.211L37.5053 41.4339L33.8527 43.1716C33.1717 43.4959 32.0839 43.3566 31.3122 42.6526L28.7757 39.85L28.486 39.5052L27.9867 39.3546L24.1201 38.0684L24.0657 38.0586C23.8133 37.9894 23.5812 37.8605 23.3891 37.6828C23.197 37.5051 23.0504 37.2838 22.9617 37.0375C22.8792 36.8064 22.844 36.561 22.8584 36.3161L22.8788 36.2036L22.8931 31.9319L22.9173 31.4678L22.6962 31.0754L20.9585 27.4228C20.6342 26.7419 20.7735 25.6541 21.4775 24.8824L24.2801 22.3458L24.6249 22.0561L24.7737 21.5566L25.9745 17.8506C25.9867 17.8247 26.0284 17.8323 26.0409 17.8046C26.2333 17.3884 26.5334 17.0312 26.9103 16.7701C27.2872 16.509 27.727 16.3534 28.1842 16.3196C28.2146 16.3176 28.2221 16.2759 28.2507 16.2735L32.1423 16.4512L32.6057 16.4791L33.0547 16.2663L36.7073 14.5286C37.0506 14.3717 37.4857 14.3176 37.903 14.3933V14.3933ZM45.422 44.2757L47.4297 49.0323L43.0613 48.2397L42.4021 49.2912L40.6314 51.955L37.8461 45.3596L38.808 44.8914L42.4951 44.9158L42.4849 44.972C42.5279 44.9724 42.5627 44.9356 42.6076 44.9362C43.5874 44.9717 44.5587 44.7435 45.4202 44.2754L45.422 44.2757ZM20.355 39.7857C21.0128 40.6448 21.9198 41.2799 22.9521 41.6042L23.0083 41.6144L26.3855 42.6956L27.0651 43.4635L22.1509 48.602L21.4289 45.4859L21.1811 44.2698L16.8163 43.4779L20.355 39.7857Z" fill="#00D1B2"/>
<g clip-path="url(#clip1)">
<g clip-path="url(#clip2)">
<path d="M39.7973 34.7611C38.4303 34.513 36.8167 33.1369 34.9566 30.6327C32.3352 32.3238 30.341 33.0453 28.974 32.7973C27.4802 32.5263 26.2981 31.7807 25.4277 30.5607C24.5573 29.3406 24.2539 28.004 24.5176 26.5507C24.7813 25.0974 25.5349 23.9525 26.7784 23.116C28.0219 22.2795 29.3906 21.9968 30.8845 22.2678C32.2656 22.5184 33.8792 23.8945 35.7252 26.3962C38.3466 24.7051 40.3408 23.9835 41.7078 24.2316C43.2016 24.5026 44.3837 25.2481 45.2541 26.4682C46.1245 27.6882 46.4279 29.0249 46.1642 30.4782C45.9005 31.9315 45.1469 33.0764 43.9034 33.9129C42.6598 34.7494 41.2912 35.0321 39.7973 34.7611ZM30.4069 24.9002C29.6036 24.7544 28.9058 24.8898 28.3134 25.3063C27.7211 25.7228 27.3578 26.3013 27.2234 27.0416C27.0891 27.782 27.2261 28.4512 27.6343 29.0492C28.0426 29.6473 28.6483 30.0192 29.4516 30.1649C29.7617 30.2212 30.1055 30.1915 30.4831 30.0759C30.8607 29.9603 31.2106 29.7972 31.5327 29.5866C31.8547 29.376 32.1521 29.1609 32.4249 28.9413C32.6976 28.7217 32.9136 28.5343 33.0728 28.3791L33.3115 28.1462C33.2817 28.07 33.2351 27.966 33.1716 27.8341C33.1082 27.7022 32.9742 27.4584 32.7694 27.1026C32.5647 26.7468 32.356 26.4328 32.1433 26.1605C31.9307 25.8883 31.6657 25.6242 31.3482 25.3684C31.0307 25.1125 30.7169 24.9564 30.4069 24.9002ZM41.2302 26.8639C40.9201 26.8077 40.5763 26.8373 40.1987 26.9529C39.8211 27.0685 39.4712 27.2316 39.1491 27.4423C38.8271 27.6529 38.5297 27.868 38.2569 28.0876C37.9842 28.3072 37.7682 28.4946 37.609 28.6498L37.3703 28.8826C37.4001 28.9589 37.4461 29.0663 37.5083 29.2051C37.5704 29.3438 37.7045 29.5876 37.9105 29.9366C38.1165 30.2855 38.3258 30.5961 38.5384 30.8683C38.7511 31.1406 39.0161 31.4046 39.3336 31.6605C39.6511 31.9164 39.9649 32.0724 40.2749 32.1287C41.0782 32.2744 41.776 32.1391 42.3684 31.7225C42.9607 31.306 43.324 30.7276 43.4584 29.9872C43.5927 29.2469 43.4557 28.5777 43.0475 27.9796C42.6392 27.3816 42.0334 27.0097 41.2302 26.8639Z" fill="#00D1B2"/>
</g>
</g>
</g>
<defs>
<clipPath id="clip0">
<rect width="59" height="59" fill="white" transform="translate(10.5328) rotate(10.2837)"/>
</clipPath>
<clipPath id="clip1">
<rect width="24" height="24" fill="white" transform="translate(25.1175 14.8421) rotate(10.2837)"/>
</clipPath>
<clipPath id="clip2">
<rect width="24" height="14" fill="white" transform="translate(24.2249 19.7618) rotate(10.2837)"/>
</clipPath>
</defs>
</svg>
