<svg width="32" height="32" viewBox="0 0 32 32" fill="none" xmlns="http://www.w3.org/2000/svg">
<path d="M16 2.66666C12.324 2.66666 9.33333 5.65732 9.33333 9.33332V13.3333H7.99999C6.52933 13.3333 5.33333 14.5293 5.33333 16V26.6667C5.33333 28.1373 6.52933 29.3333 7.99999 29.3333H24C25.4707 29.3333 26.6667 28.1373 26.6667 26.6667V16C26.6667 14.5293 25.4707 13.3333 24 13.3333H22.6667V9.33332C22.6667 5.65732 19.676 2.66666 16 2.66666ZM24 16L24.0027 26.6667H7.99999V16H24ZM12 13.3333V9.33332C12 7.12799 13.7947 5.33332 16 5.33332C18.2053 5.33332 20 7.12799 20 9.33332V13.3333H12Z" fill="black"/>
</svg>
