<svg width="32" height="32" viewBox="0 0 32 32" fill="none" xmlns="http://www.w3.org/2000/svg">
<path d="M16 5.59999C13.2417 5.59999 10.5965 6.6957 8.64609 8.64608C6.69571 10.5965 5.6 13.2417 5.6 16C5.6 16.3182 5.47357 16.6235 5.24853 16.8485C5.02348 17.0736 4.71826 17.2 4.4 17.2C4.08174 17.2 3.77651 17.0736 3.55147 16.8485C3.32643 16.6235 3.2 16.3182 3.2 16C3.2 13.4684 3.9507 10.9936 5.35719 8.88869C6.76367 6.78374 8.76275 5.14313 11.1016 4.17433C13.4405 3.20553 16.0142 2.95205 18.4972 3.44594C20.9801 3.93983 23.2609 5.15891 25.051 6.94902C26.8411 8.73913 28.0602 11.0199 28.5541 13.5028C29.0479 15.9858 28.7945 18.5594 27.8257 20.8983C26.8569 23.2372 25.2162 25.2363 23.1113 26.6428C21.0063 28.0493 18.5316 28.8 16 28.8C15.6817 28.8 15.3765 28.6736 15.1515 28.4485C14.9264 28.2235 14.8 27.9182 14.8 27.6C14.8 27.2817 14.9264 26.9765 15.1515 26.7515C15.3765 26.5264 15.6817 26.4 16 26.4C18.7582 26.4 21.4035 25.3043 23.3539 23.3539C25.3043 21.4035 26.4 18.7582 26.4 16C26.4 13.2417 25.3043 10.5965 23.3539 8.64608C21.4035 6.6957 18.7582 5.59999 16 5.59999V5.59999Z" fill="#292A2E"/>
</svg>
